<?xml version="1.0" encoding="UTF-8"?>
<svg version="1.1" xmlns="http://www.w3.org/2000/svg" width="256" height="256">
<path d="M0 0 C32.34 0 64.68 0 98 0 C94.70075438 1.64962281 91.61986389 2.77868152 88.11206055 3.85083008 C56.71359121 13.56805464 29.48715313 35.34047659 13.74707031 64.30566406 C9.05889257 73.34583029 5.1977875 82.30945067 2.75390625 92.21484375 C2 95 2 95 0 99 C0 66.33 0 33.66 0 0 Z " fill="#000000" transform="translate(0,0)"/>
<path d="M0 0 C33 0 66 0 100 0 C100 34.32 100 68.64 100 104 C99.67 104 99.34 104 99 104 C98.58041016 102.23849609 98.58041016 102.23849609 98.15234375 100.44140625 C92.86597234 78.92668513 84.62583625 59.86506312 70 43 C69.31421875 42.18144531 68.6284375 41.36289062 67.921875 40.51953125 C50.97223659 20.8567313 25.76855347 5.57027175 0 1 C0 0.67 0 0.34 0 0 Z " fill="#000000" transform="translate(156,0)"/>
<path d="M0 0 C0.85078125 -0.01417969 1.7015625 -0.02835938 2.578125 -0.04296875 C4.75 0.1875 4.75 0.1875 6.75 2.1875 C6.875 4.8125 6.875 4.8125 6.75 7.1875 C4.77 8.1775 4.77 8.1775 2.75 9.1875 C3.1109375 9.66960938 3.471875 10.15171875 3.84375 10.6484375 C4.3078125 11.28007813 4.771875 11.91171875 5.25 12.5625 C5.7140625 13.18898438 6.178125 13.81546875 6.65625 14.4609375 C7.75 16.1875 7.75 16.1875 7.75 18.1875 C5.77 18.1875 3.79 18.1875 1.75 18.1875 C0.76 16.2075 -0.23 14.2275 -1.25 12.1875 C-2.57 12.1875 -3.89 12.1875 -5.25 12.1875 C-5.25 13.8375 -5.25 15.4875 -5.25 17.1875 C-7.1875 17.75 -7.1875 17.75 -9.25 18.1875 C-11.30922402 16.12827598 -10.66427579 11.97041876 -10.8125 9.125 C-10.85568359 8.36638672 -10.89886719 7.60777344 -10.94335938 6.82617188 C-11.04973633 4.94684562 -11.15039934 3.06719756 -11.25 1.1875 C-7.46863852 0.49646172 -3.84468663 0.02948379 0 0 Z M-7.25 2.1875 C-6.92 4.1675 -6.59 6.1475 -6.25 8.1875 C-1.63492226 9.22964691 -1.63492226 9.22964691 2.75 8.1875 C2.47459296 4.36936553 2.47459296 4.36936553 0.75 1.1875 C-2.31481021 1.0261942 -4.30549278 1.20599759 -7.25 2.1875 Z " fill="#000000" transform="translate(103.25,21.8125)"/>
<path d="M0 0 C1.61648437 0.04060547 1.61648437 0.04060547 3.265625 0.08203125 C4.08546875 0.11683594 4.9053125 0.15164062 5.75 0.1875 C5.75 1.5075 5.75 2.8275 5.75 4.1875 C4.82767578 4.17009766 4.82767578 4.17009766 3.88671875 4.15234375 C2.67435547 4.13880859 2.67435547 4.13880859 1.4375 4.125 C0.63699219 4.11339844 -0.16351563 4.10179687 -0.98828125 4.08984375 C-3.41861334 4.09092145 -3.41861334 4.09092145 -6.25 5.1875 C-6.25 8.1575 -6.25 11.1275 -6.25 14.1875 C-3.28 14.6825 -3.28 14.6825 -0.25 15.1875 C0.08 13.8675 0.41 12.5475 0.75 11.1875 C2.4 11.1875 4.05 11.1875 5.75 11.1875 C7.08332095 13.8541419 6.42102033 15.35430303 5.75 18.1875 C-0.02807024 18.4233396 -4.76324804 18.05533046 -10.25 16.1875 C-10.3580023 14.08445523 -10.43558987 11.97983091 -10.5 9.875 C-10.56960937 8.11736328 -10.56960937 8.11736328 -10.640625 6.32421875 C-10.25 3.1875 -10.25 3.1875 -8.625 1.28125 C-5.59021613 -0.11634783 -3.32870059 -0.10854458 0 0 Z " fill="#000000" transform="translate(125.25,21.8125)"/>
<path d="M0 0 C1.45880109 0.14107747 2.91703551 0.28802415 4.375 0.4375 C5.59316406 0.55931641 5.59316406 0.55931641 6.8359375 0.68359375 C9 1 9 1 11 2 C10.67 7.94 10.34 13.88 10 20 C9.01 20 8.02 20 7 20 C6.34 18.35 5.68 16.7 5 15 C2.69 14.67 0.38 14.34 -2 14 C-2.33 14.66 -2.66 15.32 -3 16 C-3.66 16 -4.32 16 -5 16 C-4.39363767 10.23955788 -2.24341721 5.27985631 0 0 Z M1 6 C0.67 7.65 0.34 9.3 0 11 C2.31 11.33 4.62 11.66 7 12 C6.67 10.02 6.34 8.04 6 6 C4.35 6 2.7 6 1 6 Z " fill="#000000" transform="translate(141,24)"/>
<path d="M0 0 C1.0067004 2.26807204 2.00551766 4.53907754 3 6.8125 C3.28617188 7.45509766 3.57234375 8.09769531 3.8671875 8.75976562 C5.13711041 11.67756469 6 13.78265714 6 17 C4.35 17.33 2.7 17.66 1 18 C-0.485 13.05 -0.485 13.05 -2 8 C-2.66 8 -3.32 8 -4 8 C-4.33 11.63 -4.66 15.26 -5 19 C-6.72526042 17.50260417 -8.45052083 16.00520833 -10.17578125 14.5078125 C-12.13498212 12.8359553 -12.13498212 12.8359553 -15 11 C-14.71125 11.60328125 -14.4225 12.2065625 -14.125 12.828125 C-13.75375 13.62734375 -13.3825 14.4265625 -13 15.25 C-12.62875 16.03890625 -12.2575 16.8278125 -11.875 17.640625 C-11 20 -11 20 -11 24 C-11.99 24 -12.98 24 -14 24 C-15.03479213 21.58848443 -16.0529372 19.17205531 -17.0625 16.75 C-17.35705078 16.06808594 -17.65160156 15.38617188 -17.95507812 14.68359375 C-19.48321625 10.98010605 -20.24129373 8.8159653 -19 5 C-16.875 4.1875 -16.875 4.1875 -14 4 C-11.69892439 5.44423481 -9.98353614 7.10872135 -8 9 C-7.89042969 8.43410156 -7.78085938 7.86820313 -7.66796875 7.28515625 C-7.43013672 6.18494141 -7.43013672 6.18494141 -7.1875 5.0625 C-6.96126953 3.96615234 -6.96126953 3.96615234 -6.73046875 2.84765625 C-6.48941406 2.23792969 -6.24835938 1.62820312 -6 1 C-3 0 -3 0 0 0 Z " fill="#000000" transform="translate(83,25)"/>
<path d="M0 0 C5.89593427 0.36849589 10.55329356 1.95856301 15 6 C15.625 8.6875 15.625 8.6875 15 11 C13 13 13 13 10.375 13.125 C9.59125 13.08375 8.8075 13.0425 8 13 C8 15.97 8 18.94 8 22 C6.35 21.67 4.7 21.34 3 21 C3 18.36 3 15.72 3 13 C1.68 12.67 0.36 12.34 -1 12 C-1.66 13.32 -2.32 14.64 -3 16 C-4.32 15.67 -5.64 15.34 -7 15 C-5.63408831 11.45756548 -4.09068516 8.07372071 -2.375 4.6875 C-1.70597656 3.36298828 -1.70597656 3.36298828 -1.0234375 2.01171875 C-0.68570313 1.34785156 -0.34796875 0.68398438 0 0 Z M3 3 C1.70366379 4.06645115 1.70366379 4.06645115 1.9375 6.5625 C1.958125 7.366875 1.97875 8.17125 2 9 C5.08809695 10.76462683 6.23312136 11 10 11 C10.33 9.35 10.66 7.7 11 6 C7.93882432 3.37613513 7.26826873 3 3 3 Z " fill="#000000" transform="translate(161,30)"/>
<path d="M0 0 C4.66904262 0.45880766 7.53386582 2.87197152 11.0625 5.8125 C10.4025 7.1325 9.7425 8.4525 9.0625 9.8125 C8.45921875 9.43996094 7.8559375 9.06742188 7.234375 8.68359375 C6.43515625 8.21050781 5.6359375 7.73742188 4.8125 7.25 C4.02359375 6.77433594 3.2346875 6.29867187 2.421875 5.80859375 C0.15136902 4.63098661 0.15136902 4.63098661 -2.1171875 5.015625 C-4.96851775 6.26384683 -5.76286596 8.0064298 -6.9375 10.8125 C-6.24609649 13.11537793 -6.24609649 13.11537793 -4.9375 14.8125 C-3.6175 14.8125 -2.2975 14.8125 -0.9375 14.8125 C-0.6075 14.1525 -0.2775 13.4925 0.0625 12.8125 C2.5375 13.8025 2.5375 13.8025 5.0625 14.8125 C3.81273244 18.46566671 3.39151247 19.59315836 0.0625 21.8125 C-3.5675 19.1725 -7.1975 16.5325 -10.9375 13.8125 C-9.72632584 7.75662918 -7.16656365 0.44616739 0 0 Z " fill="#000000" transform="translate(184.9375,41.1875)"/>
<path d="M0 0 C4.97443065 1.4923292 7.42888198 4.25877446 10.75 8.125 C10.09 9.445 9.43 10.765 8.75 12.125 C4.97089522 12.125 4.28893899 11.12796038 1.5625 8.625 C0.84707031 7.9753125 0.13164062 7.325625 -0.60546875 6.65625 C-1.14816406 6.1509375 -1.69085938 5.645625 -2.25 5.125 C-3.24 5.62 -3.24 5.62 -4.25 6.125 C-3.7446875 6.71667969 -3.239375 7.30835938 -2.71875 7.91796875 C-2.0690625 8.70816406 -1.419375 9.49835937 -0.75 10.3125 C-0.1003125 11.08980469 0.549375 11.86710937 1.21875 12.66796875 C2.96508151 15.47011804 3.22927094 16.88447492 2.75 20.125 C2.09 20.785 1.43 21.445 0.75 22.125 C-3.93956606 21.9412521 -6.25160447 19.69681443 -9.5625 16.5625 C-10.44550781 15.73621094 -11.32851562 14.90992187 -12.23828125 14.05859375 C-12.90214844 13.42050781 -13.56601563 12.78242187 -14.25 12.125 C-13.59 11.135 -12.93 10.145 -12.25 9.125 C-8.41867684 10.68590944 -6.1424866 13.2325134 -3.25 16.125 C-2.26 16.455 -1.27 16.785 -0.25 17.125 C-1.83404365 14.35292362 -3.38625518 11.96982049 -5.5 9.5625 C-7.25 7.125 -7.25 7.125 -7.1875 5 C-5.28692496 1.19884993 -4.44215832 0.17085224 0 0 Z " fill="#000000" transform="translate(204.25,53.875)"/>
<path d="M0 0 C20.73206452 16.75054292 36.92223413 39.88281831 40.07421875 66.9453125 C42.47038215 97.25522352 33.34804322 123.13679345 13.8125 146.3125 C12.1328125 148.26171875 12.1328125 148.26171875 10.6875 149.625 C10.0275 149.625 9.3675 149.625 8.6875 149.625 C8.6875 150.285 8.6875 150.945 8.6875 151.625 C6.74609375 153.39453125 6.74609375 153.39453125 4.125 155.4375 C3.2175 156.14777344 2.31 156.85804688 1.375 157.58984375 C-0.847789 159.27308949 -3.08905387 160.9046001 -5.375 162.5 C-8.34422111 164.30297054 -8.34422111 164.30297054 -9.3125 166.625 C6.11251647 161.27387733 19.75421156 154.71296498 32.6875 144.625 C33.91339844 143.72201172 33.91339844 143.72201172 35.1640625 142.80078125 C59.81564664 124.1360104 73.58449578 96.09914835 80.6875 66.625 C81.0175 66.625 81.3475 66.625 81.6875 66.625 C81.6875 100.945 81.6875 135.265 81.6875 170.625 C-2.7925 170.625 -87.2725 170.625 -174.3125 170.625 C-174.415625 146.308125 -174.51875 121.99125 -174.625 96.9375 C-174.67052002 89.25637939 -174.71604004 81.57525879 -174.76293945 73.66137695 C-174.78552246 64.28942871 -174.78552246 64.28942871 -174.78971863 59.90348816 C-174.79438139 56.83685764 -174.8131352 53.77065889 -174.84037781 50.70414734 C-174.87466636 46.79272739 -174.88495768 42.88193553 -174.87786138 38.97037923 C-174.87934527 37.5347986 -174.88926586 36.09919609 -174.90857565 34.66374457 C-174.93345357 32.7242968 -174.92446328 30.78450279 -174.91377258 28.84492493 C-174.91838155 27.758131 -174.92299051 26.67133707 -174.92773914 25.55160999 C-174.10848215 21.65451446 -172.26798208 20.20096606 -169.3125 17.625 C-167.90836761 16.02809248 -166.51250276 14.42387751 -165.125 12.8125 C-160.60760737 7.77156849 -155.73880453 3.65042342 -150.3125 -0.375 C-149.17748047 -1.25091797 -149.17748047 -1.25091797 -148.01953125 -2.14453125 C-136.49633429 -10.69524524 -123.12135395 -16.64082129 -109.3125 -20.375 C-108.6023877 -20.57109863 -107.89227539 -20.76719727 -107.16064453 -20.96923828 C-70.9692387 -30.57264235 -29.70299028 -23.14890394 0 0 Z M2.6875 22.625 C3.0175 23.615 3.3475 24.605 3.6875 25.625 C3.6875 24.635 3.6875 23.645 3.6875 22.625 C3.3575 22.625 3.0275 22.625 2.6875 22.625 Z M7.6875 28.625 C8.6875 30.625 8.6875 30.625 8.6875 30.625 Z M11.6875 34.625 C12.6875 36.625 12.6875 36.625 12.6875 36.625 Z M13.6875 37.625 C14.6875 39.625 14.6875 39.625 14.6875 39.625 Z M14.6875 39.625 C15.6875 41.625 15.6875 41.625 15.6875 41.625 Z M-103.3125 55.625 C-102.9825 56.285 -102.6525 56.945 -102.3125 57.625 C-101.755625 57.16609375 -101.19875 56.7071875 -100.625 56.234375 C-89.37319526 47.18731578 -76.20271888 41.75437666 -61.5078125 42.21484375 C-56.78385657 42.82121951 -52.2291645 43.97578366 -47.65454102 45.2890625 C-43.50104466 46.4944885 -43.50104466 46.4944885 -39.3125 45.625 C-62.17940315 36.90193068 -84.47977905 38.77467073 -103.3125 55.625 Z M15.6875 41.625 C16.6875 43.625 16.6875 43.625 16.6875 43.625 Z M16.6875 43.625 C17.6875 45.625 17.6875 45.625 17.6875 45.625 Z M17.6875 45.625 C18.6875 48.625 18.6875 48.625 18.6875 48.625 Z M-39.3125 46.625 C-37.13825883 49.12537734 -35.58204202 50.06128586 -32.3125 50.625 C-34.48674117 48.12462266 -36.04295798 47.18871414 -39.3125 46.625 Z M18.6875 48.625 C19.6875 50.625 19.6875 50.625 19.6875 50.625 Z M-32.3125 50.625 C-31.3225 52.11 -31.3225 52.11 -30.3125 53.625 C-29.6525 53.295 -28.9925 52.965 -28.3125 52.625 C-29.6325 51.965 -30.9525 51.305 -32.3125 50.625 Z M19.6875 50.625 C20.6875 53.625 20.6875 53.625 20.6875 53.625 Z M20.6875 53.625 C21.6875 56.625 21.6875 56.625 21.6875 56.625 Z M-65.3125 54.625 C-65.3125 54.955 -65.3125 55.285 -65.3125 55.625 C-63.3325 55.625 -61.3525 55.625 -59.3125 55.625 C-59.3125 55.295 -59.3125 54.965 -59.3125 54.625 C-61.2925 54.625 -63.2725 54.625 -65.3125 54.625 Z M21.6875 56.625 C21.74808594 57.17285156 21.80867187 57.72070312 21.87109375 58.28515625 C22.16472687 61.06337727 22.4299252 63.84319213 22.6875 66.625 C22.79449219 67.77226562 22.90148437 68.91953125 23.01171875 70.1015625 C23.74132614 79.10321208 23.51462571 87.65386734 22.6875 96.625 C28.29113541 86.28333141 25.92895728 71.6109079 23.6875 60.625 C22.71557779 58.31052876 22.71557779 58.31052876 21.6875 56.625 Z M-105.3125 58.625 C-109.33752063 63.28163926 -113.41003983 68.70769286 -115.3125 74.625 C-114.9825 75.615 -114.6525 76.605 -114.3125 77.625 C-113.02018774 75.20867661 -111.72862809 72.79195604 -110.4375 70.375 C-110.07269531 69.69308594 -109.70789063 69.01117188 -109.33203125 68.30859375 C-107.61856427 65.0997374 -105.91256013 61.89249122 -104.3125 58.625 C-104.6425 58.625 -104.9725 58.625 -105.3125 58.625 Z M-20.3125 62.625 C-19.6525 63.285 -18.9925 63.945 -18.3125 64.625 C-18.3125 63.965 -18.3125 63.305 -18.3125 62.625 C-18.9725 62.625 -19.6325 62.625 -20.3125 62.625 Z M-79.0625 73.8125 C-84.64636642 80.79233303 -86.44896415 88.37871243 -86.5 97.1875 C-86.51417969 98.30253906 -86.52835937 99.41757813 -86.54296875 100.56640625 C-86.32117189 103.50991377 -85.8462001 105.1456192 -84.3125 107.625 C-84.34730469 106.75359375 -84.38210937 105.8821875 -84.41796875 104.984375 C-84.65334666 94.62774704 -84.33255524 83.88388851 -77.3125 75.625 C-71.47039983 70.09037878 -65.63703461 69.31899828 -57.9375 69.5 C-56.83341797 69.51353516 -56.83341797 69.51353516 -55.70703125 69.52734375 C-53.9087112 69.55069856 -52.11056089 69.58656164 -50.3125 69.625 C-59.25470363 63.66353091 -71.39418674 67.71270536 -79.0625 73.8125 Z M-50.3125 69.625 C-48.9925 70.615 -47.6725 71.605 -46.3125 72.625 C-45.6525 72.295 -44.9925 71.965 -44.3125 71.625 C-47.12759993 69.3476499 -47.12759993 69.3476499 -50.3125 69.625 Z M-33.3125 69.625 C-32.3125 71.625 -32.3125 71.625 -32.3125 71.625 Z M-44.3125 72.625 C-42.9925 74.275 -41.6725 75.925 -40.3125 77.625 C-39.6525 77.295 -38.9925 76.965 -38.3125 76.625 C-39.60215176 75.24937146 -40.93939293 73.91733607 -42.3125 72.625 C-42.9725 72.625 -43.6325 72.625 -44.3125 72.625 Z M-31.3125 72.625 C-30.3125 74.625 -30.3125 74.625 -30.3125 74.625 Z M-30.3125 74.625 C-29.3125 76.625 -29.3125 76.625 -29.3125 76.625 Z M-29.3125 76.625 C-28.3125 79.625 -28.3125 79.625 -28.3125 79.625 Z M-116.3125 77.625 C-119.43145992 88.22110938 -120.88502648 97.55615479 -120.3125 108.625 C-119.9825 108.625 -119.6525 108.625 -119.3125 108.625 C-119.19132812 107.39265625 -119.07015625 106.1603125 -118.9453125 104.890625 C-118.02590299 95.74185293 -117.00950195 86.66965935 -115.3125 77.625 C-115.6425 77.625 -115.9725 77.625 -116.3125 77.625 Z M-28.3125 79.625 C-28.26029297 80.64207031 -28.26029297 80.64207031 -28.20703125 81.6796875 C-27.9390933 90.89164929 -28.95514695 98.18090896 -34.875 105.5 C-40.25881314 111.07116195 -46.30497773 113.78104577 -54.0625 113.9375 C-57.52918108 113.77124709 -60.90992366 113.32296438 -64.3125 112.625 C-63.9825 113.285 -63.6525 113.945 -63.3125 114.625 C-56.77631564 116.80372812 -48.84360399 116.64703161 -42.4375 114.0625 C-33.89678574 109.59625493 -29.29356234 102.56818703 -26.3125 93.625 C-26.19457001 91.98220783 -26.13738326 90.33447306 -26.125 88.6875 C-26.11082031 87.83285156 -26.09664062 86.97820312 -26.08203125 86.09765625 C-26.32546444 83.48590697 -26.9946732 81.86999348 -28.3125 79.625 Z M-49.3125 86.625 C-48.78712276 91.6552076 -48.20655214 96.64385239 -47.3125 101.625 C-46.9825 101.625 -46.6525 101.625 -46.3125 101.625 C-46.23142417 99.68818839 -46.17327525 97.7504066 -46.125 95.8125 C-46.09019531 94.73355469 -46.05539063 93.65460938 -46.01953125 92.54296875 C-46.04713048 89.60551156 -46.04713048 89.60551156 -47.82421875 87.73828125 C-48.31535156 87.37089844 -48.80648437 87.00351563 -49.3125 86.625 Z M21.6875 96.625 C21.3575 98.935 21.0275 101.245 20.6875 103.625 C22.99421915 100.90950846 22.99421915 100.90950846 22.3125 98.4375 C22.10625 97.839375 21.9 97.24125 21.6875 96.625 Z M19.6875 103.625 C19.3575 105.275 19.0275 106.925 18.6875 108.625 C19.3475 107.965 20.0075 107.305 20.6875 106.625 C20.3575 105.635 20.0275 104.645 19.6875 103.625 Z M-84.3125 107.625 C-83.3125 109.625 -83.3125 109.625 -83.3125 109.625 Z M-69.3125 108.625 C-68.3225 109.945 -67.3325 111.265 -66.3125 112.625 C-65.6525 112.295 -64.9925 111.965 -64.3125 111.625 C-65.68735532 110.08333358 -65.68735532 110.08333358 -67.3125 108.625 C-67.9725 108.625 -68.6325 108.625 -69.3125 108.625 Z M17.6875 108.625 C16.82374104 110.24492165 15.97174146 111.87111861 15.125 113.5 C14.64933594 114.40492188 14.17367187 115.30984375 13.68359375 116.2421875 C13.35488281 117.02851563 13.02617187 117.81484375 12.6875 118.625 C13.0175 119.285 13.3475 119.945 13.6875 120.625 C14.55396667 119.19488027 15.40531829 117.75559381 16.25 116.3125 C16.72566406 115.51199219 17.20132813 114.71148437 17.69140625 113.88671875 C19.030181 111.53341521 19.030181 111.53341521 17.6875 108.625 Z M-119.3125 109.625 C-119.74015417 116.03981258 -118.16993168 121.51095404 -116.3125 127.625 C-114.79696908 123.65049507 -115.81361377 120.42018851 -116.75 116.375 C-117.03746094 115.11171875 -117.32492188 113.8484375 -117.62109375 112.546875 C-117.84925781 111.58265625 -118.07742187 110.6184375 -118.3125 109.625 C-118.6425 109.625 -118.9725 109.625 -119.3125 109.625 Z M-83.3125 110.625 C-82.3125 112.625 -82.3125 112.625 -82.3125 112.625 Z M-82.3125 112.625 C-81.3125 114.625 -81.3125 114.625 -81.3125 114.625 Z M-81.3125 114.625 C-80.9825 115.615 -80.6525 116.605 -80.3125 117.625 C-80.3125 116.635 -80.3125 115.645 -80.3125 114.625 C-80.6425 114.625 -80.9725 114.625 -81.3125 114.625 Z M-153.3125 117.625 C-152.6525 118.285 -151.9925 118.945 -151.3125 119.625 C-151.3125 118.965 -151.3125 118.305 -151.3125 117.625 C-151.9725 117.625 -152.6325 117.625 -153.3125 117.625 Z M11.6875 120.625 C11.6875 123.625 11.6875 123.625 11.6875 123.625 Z M-150.3125 121.625 C-149.6525 122.285 -148.9925 122.945 -148.3125 123.625 C-148.3125 122.965 -148.3125 122.305 -148.3125 121.625 C-148.9725 121.625 -149.6325 121.625 -150.3125 121.625 Z M9.6875 123.625 C9.6875 126.625 9.6875 126.625 9.6875 126.625 Z M7.6875 126.625 C7.0275 127.945 6.3675 129.265 5.6875 130.625 C6.6775 129.965 7.6675 129.305 8.6875 128.625 C8.3575 127.965 8.0275 127.305 7.6875 126.625 Z M-115.3125 127.625 C-114.81418276 131.31254757 -114.21182357 133.22990662 -111.3125 135.625 C-112.58224972 131.20977891 -112.58224972 131.20977891 -115.3125 127.625 Z M-57.3125 127.625 C-57.3125 127.955 -57.3125 128.285 -57.3125 128.625 C-54.6725 128.625 -52.0325 128.625 -49.3125 128.625 C-49.3125 128.295 -49.3125 127.965 -49.3125 127.625 C-51.9525 127.625 -54.5925 127.625 -57.3125 127.625 Z M-144.3125 128.625 C-142.6625 130.275 -141.0125 131.925 -139.3125 133.625 C-140.10367904 131.62516466 -140.10367904 131.62516466 -141.3125 129.625 C-142.3025 129.295 -143.2925 128.965 -144.3125 128.625 Z M4.6875 130.625 C0.7275 134.585 -3.2325 138.545 -7.3125 142.625 C-4.13629728 142.95571315 -4.13629728 142.95571315 -1.83203125 140.4375 C-0.93871094 139.509375 -0.04539063 138.58125 0.875 137.625 C1.77605469 136.696875 2.67710937 135.76875 3.60546875 134.8125 C4.29253906 134.090625 4.97960937 133.36875 5.6875 132.625 C5.3575 131.965 5.0275 131.305 4.6875 130.625 Z M-98.3125 132.625 C-97.6525 133.285 -96.9925 133.945 -96.3125 134.625 C-96.3125 133.965 -96.3125 133.305 -96.3125 132.625 C-96.9725 132.625 -97.6325 132.625 -98.3125 132.625 Z M-137.3125 135.625 C-135.6625 137.605 -134.0125 139.585 -132.3125 141.625 C-131.6525 141.295 -130.9925 140.965 -130.3125 140.625 C-131.93589805 138.91615995 -133.60569053 137.25053283 -135.3125 135.625 C-135.9725 135.625 -136.6325 135.625 -137.3125 135.625 Z M-111.3125 135.625 C-110.3125 137.625 -110.3125 137.625 -110.3125 137.625 Z M-95.3125 136.625 C-94.4044838 137.75699353 -93.48566174 138.88032363 -92.5625 140 C-91.79679687 140.93972656 -91.79679687 140.93972656 -91.015625 141.8984375 C-89.23050519 143.70812318 -87.63300356 144.62617455 -85.3125 145.625 C-86.2205162 144.49300647 -87.13933826 143.36967637 -88.0625 142.25 C-88.82820313 141.31027344 -88.82820313 141.31027344 -89.609375 140.3515625 C-91.39449481 138.54187682 -92.99199644 137.62382545 -95.3125 136.625 Z M-110.3125 137.625 C-109.3125 139.625 -109.3125 139.625 -109.3125 139.625 Z M-108.3125 140.625 C-107.3125 142.625 -107.3125 142.625 -107.3125 142.625 Z M-129.3125 142.625 C-128.3225 144.11 -128.3225 144.11 -127.3125 145.625 C-126.6525 145.295 -125.9925 144.965 -125.3125 144.625 C-126.6325 143.965 -127.9525 143.305 -129.3125 142.625 Z M-14.125 146.8125 C-19.38290167 150.24368022 -24.65469657 152.50151874 -30.5625 154.58203125 C-33.46651047 155.56618845 -33.46651047 155.56618845 -36.3125 157.625 C-30.12928721 157.15416185 -25.60265222 155.72652422 -20.125 152.875 C-19.43986328 152.53984375 -18.75472656 152.2046875 -18.04882812 151.859375 C-13.69107135 149.64484605 -10.58410556 147.25870559 -7.3125 143.625 C-10.25405902 143.625 -11.71344075 145.15653911 -14.125 146.8125 Z M-124.3125 146.625 C-123.9825 147.285 -123.6525 147.945 -123.3125 148.625 C-122.6525 148.295 -121.9925 147.965 -121.3125 147.625 C-122.3025 147.295 -123.2925 146.965 -124.3125 146.625 Z M-84.3125 146.625 C-83.9825 147.285 -83.6525 147.945 -83.3125 148.625 C-82.6525 148.295 -81.9925 147.965 -81.3125 147.625 C-82.3025 147.295 -83.2925 146.965 -84.3125 146.625 Z M-121.3125 148.625 C-120.9825 149.285 -120.6525 149.945 -120.3125 150.625 C-119.6525 150.295 -118.9925 149.965 -118.3125 149.625 C-119.3025 149.295 -120.2925 148.965 -121.3125 148.625 Z M-81.3125 148.625 C-80.3225 149.615 -79.3325 150.605 -78.3125 151.625 C-77.6525 151.295 -76.9925 150.965 -76.3125 150.625 C-78.7875 149.635 -78.7875 149.635 -81.3125 148.625 Z M-100.3125 150.625 C-99.9825 151.285 -99.6525 151.945 -99.3125 152.625 C-98.6525 152.295 -97.9925 151.965 -97.3125 151.625 C-98.3025 151.295 -99.2925 150.965 -100.3125 150.625 Z M-72.3125 153.625 C-71.6525 154.285 -70.9925 154.945 -70.3125 155.625 C-69.3225 155.295 -68.3325 154.965 -67.3125 154.625 C-68.9625 154.295 -70.6125 153.965 -72.3125 153.625 Z M-67.3125 155.625 C-64.81744038 158.12005962 -63.63921112 157.98448376 -60.1875 158.25 C-59.27742188 158.32476562 -58.36734375 158.39953125 -57.4296875 158.4765625 C-56.73101562 158.52554688 -56.03234375 158.57453125 -55.3125 158.625 C-55.3125 158.295 -55.3125 157.965 -55.3125 157.625 C-61.2525 156.635 -61.2525 156.635 -67.3125 155.625 Z M-49.1875 158.125 C-50.33992188 158.2178125 -51.49234375 158.310625 -52.6796875 158.40625 C-53.98292969 158.51453125 -53.98292969 158.51453125 -55.3125 158.625 C-55.3125 158.955 -55.3125 159.285 -55.3125 159.625 C-53.08340129 159.65214735 -50.85420633 159.67146254 -48.625 159.6875 C-47.38363281 159.69910156 -46.14226562 159.71070313 -44.86328125 159.72265625 C-41.85014546 159.63978673 -39.22974661 159.33339449 -36.3125 158.625 C-36.3125 158.295 -36.3125 157.965 -36.3125 157.625 C-40.63556711 157.57243991 -44.87906479 157.773291 -49.1875 158.125 Z M-102.3125 159.625 C-100.50288423 161.25331762 -100.50288423 161.25331762 -98.3125 162.625 C-97.3225 162.295 -96.3325 161.965 -95.3125 161.625 C-97.95988916 160.1643715 -99.20698334 159.625 -102.3125 159.625 Z M-92.3125 163.625 C-89.55026722 166.38723278 -87.10543383 166.20356291 -83.3125 166.625 C-86.50012365 164.49991756 -88.57762223 164.1229837 -92.3125 163.625 Z M-83.3125 166.625 C-80.08458445 168.7769437 -79.02849191 168.82586443 -75.3125 168.625 C-75.6425 167.635 -75.9725 166.645 -76.3125 165.625 C-78.65109436 165.625 -81.01280423 166.23356242 -83.3125 166.625 Z " fill="#000000" transform="translate(174.3125,85.375)"/>
<path d="M0 0 C0.99 0 1.98 0 3 0 C4.38671875 1.53125 4.38671875 1.53125 5.6875 3.5 C6.12449219 4.1496875 6.56148437 4.799375 7.01171875 5.46875 C7.50091797 6.22671875 7.50091797 6.22671875 8 7 C5.44870003 8.09341427 3.10819042 8.9793923 0.375 9.5 C-2.25146244 9.89941503 -2.25146244 9.89941503 -5 12 C-5.72382467 14.05925139 -5.72382467 14.05925139 -6 16 C-10 16 -10 16 -11.75 14.5 C-12.1625 14.005 -12.575 13.51 -13 13 C-12.67 12.01 -12.34 11.02 -12 10 C-10.2712467 9.2497863 -8.5395681 8.50448154 -6.78515625 7.81640625 C-4.2755042 6.66866603 -2.7274423 5.12608283 -1 3 C-0.67 2.01 -0.34 1.02 0 0 Z " fill="#000000" transform="translate(217,70)"/>
<path d="M0 0 C3.01812867 2.53020949 4.43965073 5.73342285 5.69140625 9.41796875 C5.53780637 12.95076602 5.19329243 13.91608257 2.69140625 16.41796875 C-0.39993235 16.65576403 -2.33964319 16.40761894 -5.30859375 15.41796875 C-6.23671875 16.65546875 -6.23671875 16.65546875 -7.18359375 17.91796875 C-8.23546875 19.15546875 -8.23546875 19.15546875 -9.30859375 20.41796875 C-9.96859375 20.41796875 -10.62859375 20.41796875 -11.30859375 20.41796875 C-11.63859375 18.76796875 -11.96859375 17.11796875 -12.30859375 15.41796875 C-10.98859375 14.42796875 -9.66859375 13.43796875 -8.30859375 12.41796875 C-8.63859375 11.09796875 -8.96859375 9.77796875 -9.30859375 8.41796875 C-11.28859375 8.74796875 -13.26859375 9.07796875 -15.30859375 9.41796875 C-15.63859375 8.09796875 -15.96859375 6.77796875 -16.30859375 5.41796875 C-14.06608497 4.35667449 -11.81710286 3.31915642 -9.55859375 2.29296875 C-8.924375 1.99003906 -8.29015625 1.68710938 -7.63671875 1.375 C-2.92217271 -0.73672375 -2.92217271 -0.73672375 0 0 Z M-4.43359375 5.41796875 C-5.05234375 6.07796875 -5.67109375 6.73796875 -6.30859375 7.41796875 C-5.74497073 9.46633757 -5.74497073 9.46633757 -4.30859375 11.41796875 C-1.24950962 12.23381443 -1.24950962 12.23381443 1.69140625 12.41796875 C2.35140625 11.42796875 3.01140625 10.43796875 3.69140625 9.41796875 C2.41744735 7.37963451 1.08078702 5.37944749 -0.30859375 3.41796875 C-2.55221948 3.18951385 -2.55221948 3.18951385 -4.43359375 5.41796875 Z " fill="#000000" transform="translate(229.30859375,83.58203125)"/>
</svg>
